External Loads File
version=1
nRows=38
nColumns=13
Range=5.000000e-03-10 seconds
endheader
time 	forceRightX 	forceRightY 	forceRightZ 	pointRightX 	pointRightY 	pointRightZ 	forceLeftX 	forceLeftY 	forceLeftZ 	pointLeftX 	pointLeftY 	pointLeftZ 		
7.505000 -40.829237 22.567416 -0.000000 0.269818 0.474860 -0.128615 68.069590 605.625052 -0.000000 0.360010 0.157054 -0.366327
7.510000 -43.685195 31.540112 -0.000000 0.278668 0.479592 -0.128500 83.236829 557.743690 -0.000000 0.351255 0.153689 -0.366115
7.515000 -45.631057 40.341152 -0.000000 0.287659 0.483732 -0.128473 95.245338 507.046697 -0.000000 0.342212 0.150907 -0.365904
7.520000 -46.977446 48.574545 -0.000000 0.296889 0.487389 -0.128287 104.524873 455.457439 -0.000000 0.332890 0.148765 -0.365791
7.525000 -48.058525 55.909092 -0.000000 0.306173 0.490215 -0.128062 111.156979 405.033112 -0.000000 0.323326 0.147360 -0.365550
7.530000 -49.141076 62.214567 -0.000000 0.315372 0.492495 -0.127932 115.603427 357.595864 -0.000000 0.313554 0.146579 -0.365304
7.535000 -50.397573 67.581805 -0.000000 0.324540 0.494146 -0.127768 118.456825 314.535900 -0.000000 0.303677 0.146307 -0.365099
7.540000 -51.880204 72.288138 -0.000000 0.333641 0.495131 -0.127774 120.374059 276.658243 -0.000000 0.293632 0.146775 -0.364848
7.545000 -53.631871 76.625034 -0.000000 0.342517 0.495349 -0.127621 121.585991 244.316400 -0.000000 0.283618 0.147802 -0.364620
7.550000 -55.572338 80.923658 -0.000000 0.351267 0.494915 -0.127600 122.477906 217.226691 -0.000000 0.273686 0.149489 -0.364390
7.555000 -57.682260 85.422698 -0.000000 0.359742 0.493596 -0.127576 123.072312 194.862794 -0.000000 0.263948 0.151758 -0.364221
7.560000 -59.943647 90.332797 -0.000000 0.367871 0.491597 -0.127491 123.369136 176.507918 -0.000000 0.254456 0.154834 -0.363933
7.565000 -62.424479 95.807941 -0.000000 0.375686 0.488916 -0.127379 123.242474 161.500049 -0.000000 0.245399 0.158333 -0.363691
7.570000 -65.084345 102.106385 -0.000000 0.383137 0.485314 -0.127195 122.862084 149.032212 -0.000000 0.236615 0.162525 -0.363439
7.575000 -68.039472 109.452151 -0.000000 0.390210 0.481268 -0.126886 122.219124 138.526742 -0.000000 0.228070 0.167260 -0.363204
7.580000 -71.365786 118.180714 -0.000000 0.396973 0.476636 -0.126727 121.438803 129.401161 -0.000000 0.219905 0.172515 -0.362964
7.585000 -75.044644 128.725674 -0.000000 0.403269 0.471094 -0.126895 120.722003 121.083650 -0.000000 0.212033 0.178442 -0.362835
7.590000 -79.138054 141.441164 -0.000000 0.409320 0.465001 -0.126547 120.102812 113.256666 -0.000000 0.204575 0.184869 -0.362741
7.595000 -83.680883 156.633919 -0.000000 0.414837 0.458228 -0.126253 119.601054 105.753459 -0.000000 0.197522 0.191780 -0.362902
7.600000 -88.596630 174.573898 -0.000000 0.419936 0.450833 -0.126026 119.292787 98.465325 -0.000000 0.191001 0.199277 -0.362902
7.605000 -93.834933 195.339495 -0.000000 0.424535 0.442783 -0.125694 119.214107 91.395732 -0.000000 0.184909 0.207195 -0.362918
7.610000 -99.557604 218.657073 -0.000000 0.428568 0.434289 -0.125124 119.311678 84.690836 -0.000000 0.179395 0.215426 -0.362909
7.615000 -104.892496 244.429861 -0.000000 0.432589 0.424580 -0.124828 119.898770 77.936121 -0.000000 0.174322 0.224101 -0.362865
7.620000 -110.500007 271.599270 -0.000000 0.436179 0.414851 -0.124501 120.638215 71.546871 -0.000000 0.169735 0.233156 -0.362702
7.625000 -115.400687 299.641620 -0.000000 0.440002 0.404630 -0.124635 121.651556 65.131877 -0.000000 0.165374 0.242596 -0.361733
7.630000 -120.612687 327.193119 -0.000000 0.442569 0.394302 -0.124404 122.504469 59.192030 -0.000000 0.161971 0.252386 -0.361568
7.635000 -125.343533 353.689383 -0.000000 0.444877 0.383872 -0.124159 123.194156 53.486776 -0.000000 0.159196 0.262338 -0.361436
7.640000 -129.017876 378.661955 -0.000000 0.447631 0.373239 -0.124698 123.644551 47.914582 -0.000000 0.157037 0.272363 -0.361315
7.645000 -131.939941 401.654518 -0.000000 0.449067 0.362430 -0.124810 123.706157 42.622607 -0.000000 0.155504 0.282657 -0.361170
7.650000 -133.731593 422.777608 -0.000000 0.450186 0.351551 -0.124832 123.366596 37.469043 -0.000000 0.154573 0.293077 -0.361076
7.655000 -134.220334 442.290665 -0.000000 0.450963 0.340575 -0.124704 122.591190 32.375598 -0.000000 0.154256 0.303565 -0.360954
7.660000 -133.033361 460.595226 -0.000000 0.451410 0.329564 -0.124596 121.342018 27.251163 -0.000000 0.154513 0.314224 -0.360870
7.665000 -130.588152 477.840457 -0.000000 0.451171 0.318654 -0.124502 119.521227 22.277631 -0.000000 0.155372 0.324705 -0.360804
7.670000 -125.948572 494.491891 -0.000000 0.450246 0.307805 -0.124476 117.134190 17.320749 -0.000000 0.156780 0.335310 -0.360798
7.675000 -118.940224 510.710814 -0.000000 0.448982 0.296892 -0.124279 114.190819 12.408077 -0.000000 0.158989 0.345841 -0.360650
7.680000 -108.437253 526.768654 -0.000000 0.446695 0.285379 -0.124691 110.744141 7.269821 -0.000000 0.161687 0.356246 -0.360612
7.685000 -97.131894 542.031893 -0.000000 0.444093 0.274782 -0.124664 106.771816 2.374430 -0.000000 0.165095 0.366572 -0.360823
7.690000 -83.942891 556.629853 -0.000000 0.440829 0.264395 -0.124862 102.294992 -2.673869 -0.000000 0.168852 0.376858 -0.360826
